<svg width="375" height="121" viewBox="0 0 375 121" fill="none" xmlns="http://www.w3.org/2000/svg">
<g clip-path="url(#clip0)">
<line x1="-0.0106812" y1="50.5" x2="375.011" y2="50.5" stroke="white"/>
<rect width="375" height="50" fill="#9BAAB9"/>
<path fill-rule="evenodd" clip-rule="evenodd" d="M134.073 12L125 27.5106H132.834L141.908 12H134.073Z" fill="#00C2D4"/>
<path fill-rule="evenodd" clip-rule="evenodd" d="M141.921 27.489L132.848 43H140.682L149.755 27.489H141.921Z" fill="#00C2D4"/>
<path fill-rule="evenodd" clip-rule="evenodd" d="M164.697 30.3034H168.166C168.256 31.7327 169.463 32.6852 171.545 32.6852C173.385 32.6852 174.44 32.0005 174.44 30.9289C174.44 29.7378 173.053 29.2314 171.273 28.9636C170.398 28.8149 169.493 28.6361 168.618 28.398C166.839 27.9513 165.451 26.6416 165.451 24.2895C165.451 22.9497 166.024 21.7882 167.171 20.8357C168.287 19.9128 169.795 19.4365 171.665 19.4365C173.807 19.4365 175.496 20.1509 176.401 21.223C177.306 22.2946 177.728 23.3963 177.819 24.5573H174.38C174.26 23.3365 173.294 22.3242 171.575 22.3242C169.855 22.3242 168.89 23.009 168.89 24.1704C168.89 25.242 170.278 25.7484 172.057 26.0162C172.932 26.1649 173.837 26.3437 174.712 26.5819C176.492 27.0882 177.879 28.4874 177.879 30.7797C177.879 32.1793 177.306 33.3106 176.19 34.2335C175.043 35.1564 173.415 35.603 171.333 35.603C167.02 35.603 164.908 33.4 164.697 30.3034Z" fill="black"/>
<path fill-rule="evenodd" clip-rule="evenodd" d="M204.25 32.0897V35.1562C203.798 35.2757 203.194 35.335 202.38 35.335C199.333 35.335 197.795 33.8164 197.795 30.7799V22.6219H195.412V19.7936H197.795V15.7745H201.384V19.7936H204.311V22.6219H201.384V30.4223C201.384 31.6431 201.958 32.2384 203.134 32.2384L204.25 32.0897Z" fill="black"/>
<path fill-rule="evenodd" clip-rule="evenodd" d="M206.078 35.2458H209.667V12.9162H206.078V35.2458Z" fill="black"/>
<path fill-rule="evenodd" clip-rule="evenodd" d="M214.635 17.2035C215.932 17.2035 216.867 16.3102 216.867 15.0302C216.867 13.72 215.932 12.7971 214.635 12.7971C213.307 12.7971 212.372 13.72 212.372 15.0302C212.372 16.3102 213.307 17.2035 214.635 17.2035Z" fill="black"/>
<path fill-rule="evenodd" clip-rule="evenodd" d="M212.824 35.2459H216.414V19.8477H212.824V35.2459Z" fill="black"/>
<path fill-rule="evenodd" clip-rule="evenodd" d="M220.104 19.7936V18.1563C220.104 14.6728 222.035 12.9161 225.172 12.9161L226.379 13.0055V16.1317C226.258 16.1017 226.047 16.072 225.715 16.072C224.267 16.072 223.694 16.6974 223.694 18.3644V19.7936H226.469V22.622H223.694V35.2457H220.104V22.622H217.601V19.7936H220.104Z" fill="black"/>
<path fill-rule="evenodd" clip-rule="evenodd" d="M234.308 22.3242C236.6 22.3242 238.109 23.7535 238.44 25.9268H230.115C230.477 23.7535 232.045 22.3242 234.308 22.3242ZM238.354 29.479C237.912 31.4391 236.465 32.7149 234.308 32.7149C232.064 32.7149 230.507 31.3076 230.128 29.1643H230.128C230.092 28.9765 230.046 28.7115 230.017 28.4405H241.973L242 27.445C242 25.1527 241.306 23.2175 239.889 21.6989C238.471 20.1806 236.6 19.4362 234.308 19.4362C232.015 19.4362 230.145 20.2103 228.697 21.7586C227.249 23.3069 226.525 25.212 226.525 27.5048C226.525 27.6109 226.538 27.7101 226.543 27.8143H226.532C226.532 27.8143 226.542 28.0412 226.574 28.3726C226.576 28.3949 226.575 28.4183 226.578 28.4405H226.58C226.601 28.6517 226.633 28.9024 226.675 29.1643H226.664C226.699 29.3677 226.741 29.5668 226.788 29.7628C226.789 29.7659 226.79 29.769 226.79 29.7722H226.791C227.118 31.0999 227.75 32.2675 228.697 33.2806C230.145 34.8289 232.015 35.603 234.308 35.603C236.6 35.603 238.471 34.8586 239.889 33.3403C240.898 32.2593 241.529 30.9617 241.815 29.479H238.354Z" fill="black"/>
<path fill-rule="evenodd" clip-rule="evenodd" d="M187.221 22.3242C189.514 22.3242 191.022 23.7535 191.354 25.9268H183.028C183.39 23.7535 184.959 22.3242 187.221 22.3242ZM191.267 29.479C190.825 31.4391 189.378 32.7149 187.221 32.7149C184.978 32.7149 183.42 31.3076 183.041 29.1643H183.041C183.005 28.9765 182.959 28.7115 182.93 28.4405H194.886L194.913 27.445C194.913 25.1527 194.219 23.2175 192.802 21.6989C191.384 20.1806 189.514 19.4362 187.221 19.4362C184.929 19.4362 183.058 20.2103 181.61 21.7586C180.162 23.3069 179.438 25.212 179.438 27.5048C179.438 27.6109 179.451 27.7101 179.456 27.8143H179.445C179.445 27.8143 179.455 28.0412 179.487 28.3726C179.489 28.3949 179.488 28.4183 179.491 28.4405H179.493C179.514 28.6517 179.546 28.9024 179.588 29.1643H179.577C179.612 29.3677 179.654 29.5668 179.702 29.7628C179.702 29.7659 179.703 29.769 179.703 29.7722H179.704C180.031 31.0999 180.663 32.2675 181.61 33.2806C183.058 34.8289 184.929 35.603 187.221 35.603C189.514 35.603 191.384 34.8586 192.802 33.3403C193.811 32.2593 194.442 30.9617 194.728 29.479H191.267Z" fill="black"/>
<path d="M0 51H375V121C375 121 278.5 91 188 91C97.5 91 0 121 0 121V51Z" fill="#9BAAB9"/>
</g>
<defs>
<clipPath id="clip0">
<rect width="375" height="121" fill="white"/>
</clipPath>
</defs>
</svg>
